<svg width="32" height="32" viewBox="0 0 32 32" xmlns="http://www.w3.org/2000/svg">
  <defs>
    <path id="star" fill="#FFFFFF" d="M0,-0.6 L0.15,-0.15 L0.6,-0.15 L0.25,0.15 L0.35,0.6 L0,0.35 L-0.35,0.6 L-0.25,0.15 L-0.6,-0.15 L-0.15,-0.15 Z"/>
    <g id="row6">
      <use href="#star" x="1.5"/>
      <use href="#star" x="3.7"/>
      <use href="#star" x="5.9"/>
      <use href="#star" x="8.1"/>
      <use href="#star" x="10.3"/>
      <use href="#star" x="12.5"/>
    </g>
    <g id="row5">
      <use href="#star" x="2.6"/>
      <use href="#star" x="4.8"/>
      <use href="#star" x="7.0"/>
      <use href="#star" x="9.2"/>
      <use href="#star" x="11.4"/>
    </g>
  </defs>
  <rect x="0" y="3" width="32" height="26" fill="#FFFFFF"/>
  <path d="M0,3 H32 V5 H0 Z M0,7 H32 V9 H0 Z M0,11 H32 V13 H0 Z M0,15 H32 V17 H0 Z M0,19 H32 V21 H0 Z M0,23 H32 V25 H0 Z M0,27 H32 V29 H0 Z" fill="#B31942"/>
  <rect x="0" y="3" width="14" height="14" fill="#0A3161"/>
  <use href="#row6" y="4.4"/>
  <use href="#row5" y="5.8"/>
  <use href="#row6" y="7.2"/>
  <use href="#row5" y="8.6"/>
  <use href="#row6" y="10.0"/>
  <use href="#row5" y="11.4"/>
  <use href="#row6" y="12.8"/>
  <use href="#row5" y="14.2"/>
  <use href="#row6" y="15.6"/>
</svg>
